<?xml version="1.0" encoding="UTF-8"?>
<svg version="1.1" viewBox="0 0 900 900" width="225" height="225" xmlns="http://www.w3.org/2000/svg">
<path transform="translate(0)" d="m0 0h900v900h-900z" fill="#FDFDFC"/>
<path transform="translate(497,91)" d="m0 0h159l1 1v57l-1 113-1 91-1 54-3 16-5 14-10 19-9 12-9 10-6 7-8 7-12 10-24 16-14 9-20 11-46 26-19 10-17 8-14-6-19-10-29-15-24-14-20-12-15-10-11-8-17-13-14-12-9-10-10-15-7-12-8-20-4-15-1-5v-313z" fill="#880339"/>
<path transform="translate(380,276)" d="m0 0 4 1 6 7 2 12 7 2 7 5 2 4-2 10-4 4-10 4-1 55v5h53l4-4 6-8 5-2 8 1 6 5 3 8 15 1 8 9 9 11 35 35 7 8 13 13 7 8 9 8v2l4 2 2 2-1 4-12 8-13 9-15 10-18 11-26 15-22 12-22 10h-8l-16-8-23-12-14-8-12-7 1-4 5-5 3-6 2-7 9-6 4-6v-6l-5-7-8-7-1-1v-40l1-15 1-3 2-1h48l6 8v2l4 2 3 2 9-1 7-6 3-6 2-1 13-2 5-6 2-6-2-1h-92l-23-1-1-1v-58z" fill="#C9B57E"/>
<path transform="translate(269,107)" d="m0 0 35 1 5 4 7 8 6 7 11 11v2h2l7 8 31 31 12 13 32 32 7 8 48 48 7 8 10 10v2l4 2 4 4v2l3 1 7 8 17 17 5 6 28 28 7 8 34 34v2h2l7 8 15 14 2 3v8l-5 9-9 10-7 8h-6l-9-7-7-8-29-29-7-8-12-12-7-8-49-49-7-8-38-38-7-8-13-13-7-8-12-11-14-15-40-40v-2l-3-1-7-8-19-19-9-10-11-11v-2h-2l-7-8-8-8-6-5-1-3v-25z" fill="#035697"/>
<path transform="translate(528,602)" d="m0 0 3 1 11 30 14 37 15 38 4 6 6 3h7l5-3 2-9v-83l-1-8-5-2-8-3v-2l24-1h28l10 3 8 6 4 5 3 9v11l-4 10-8 9-6 4 2 6 24 36 8 9 8 4h7l4-3h2v-97l-2-4-10-5v-2l37-2h18l16 3 12 5 11 8 9 13 5 14 1 5v19l-3 12-4 9-7 11-9 8-12 6-18 4-25-1-26 1h-20l-8-5-8-8-7-11-11-17-8-12h-17v37l3 7 5 3 9 4 1 2-53-1h-25l2-4 4-2v-9l-8-22-3-6h-41l-3 4-8 19-2 6v6l8 5 3 3h-31l2-4 6-4 13-27 14-33 17-39z" fill="#880339"/>
<path transform="translate(266,162)" d="m0 0 4 1 7 7 8 7 38 38 5 6 31 31v2l4 2v2h2v2l4 2 7 7 2 5-9 6-5 8-2 9-9 4-2 5v11l3 5 9 4v56l-1 1h-49l-5-5-7-6-3-1h-8l-5 5-5 7-10 3-5-1z" fill="#C9B57E"/>
<path transform="translate(329,108)" d="m0 0h225l3 2-3 3-12 3-13 8-9 4-1 4 5 12v7l-3 5 5 2 7 6 6 3-1 5-7 8-4 5-4-1-2-5-1-18-3-8-3-19-3-12-5-4-10-4h-4l-3 5-7 3-12 3-9 5-4 3-7-1-17-4 1-11-4-3-8 1-2 6 1 6-24 8h-7l-14-3h-11v3l6 2 19 9 11 9 7 6 4 4-2 5-6 8-1 5h48l-5-9-4-6 1-3 13-4 23-5 4 1 1 20 2 5-2 2 1 6 4 6v3l-7-1-7-5-8-1-6 5-10 5-2 3 1 5 3 3-1 6 6 2 5 8 10 9 4 1 3-2 4 1 1 2h5l3-2 11 1 8-3h35l4 8 1 10-20 1-13 2-6 6 1 16 3 9 1 2v6l-7-1-8-7-7-7-7-8-15-15-5-4-7-8-30-30-7-8-22-22-7-8-39-39-7-8-21-21z" fill="#C9B47E"/>
<path transform="translate(279,610)" d="m0 0h15l11 3 11 7 8 8 8 14 4 13v23l-3 12-8 14-9 8-11 5-4 1h-15l-10-3-10-6-8-8-8-13-5-16-1-8v-11l3-15 6-12 8-9 10-5z" fill="#FDFCFB"/>
<path transform="translate(716,611)" d="m0 0h22l16 5 10 8 8 11 5 10 3 13v20l-3 12-6 12-9 8-10 5-8 2h-16l-13-3-6-4v-92l2-5z" fill="#FDFCFC"/>
<path transform="translate(637,107)" d="m0 0 3 1 1 27v114l-1 50-1 100-2 12-3 9-5-3-37-37-3-4v-2h38l3-9 5-17 1-6v-8l-2-5v-8l1-2v-10l-3-10-5-4-12-5-1-3 2-16 2-8 9-10 4-10v-11l-5-14-4-9-1-4v-9l4-8 10-13 2-6v-13l-7-25-1-8-7 4-2 3-4 13-5 11-3 10 1 7 3 5 3 2v6l-4 8v12l4 17 4 11 1 4v8l-3 2-3-5-15-30v-5l2-2-1-10-1-14 1-1 8 1-5-15v-8l3-1-5-13-5-15-2-4 1-8 1-5-17 1-1-3 2-1z" fill="#C9B57E"/>
<path transform="translate(467,206)" d="m0 0h8l11 3 6 1h29l3 5 5-1 11-8h4l3 11 1 2 5-1 11-10 3 1 3 10 3 7 4-1 8-14 3 1 6 10 8 19 4 13 1 7v12l-3 14-4 8 9 3 8 4 3 5 3 14 2 11v12l-5 16-2 2h-20l-10-1-1-3-14-3 2-5 4-4 6-1 12 4 6 1 4-7v-9l-4-12-11-8-5-6-8-5-9-9-1-2v-19l1-11-4-12-4-6-2-6 1-8 1-6-16 1-22 1h-27l-16-1-8-4-6-7-1-7z" fill="#C9B57E"/>
<path transform="translate(451,606)" d="m0 0h5l-2 4-5 5-8 18-8 21 1 8 15 37 1 4 2-1 9-20 10-25 11-31 2-8-1-5-8-4v-2l6-1h23l-7 11-17 39-20 48-9 20-4 2-8-16-14-33-2-1-6 17-11 26-4 8-3-1-7-15-8-20-14-34-12-30-6-11-6-4-5-3v-2h35l-1 4-6 2 4 13 11 28 13 31 6 14h2l10-22 4-10-1-8-14-33-6-12-4-2-7-2-1-3h35l-2 5-2 2 1 9 6 15 3 7 4-9 5-13 2-10-5-2-3-1v-3z" fill="#880339"/>
<path transform="translate(116,605)" d="m0 0 39 1-10 8-1 5v38h58v-43l-4-2-5-4v-2h31v3l-6 5-1 2v94l3 5 9 4v3h-36l2-4 6-4 1-2 1-47-59 1v40l2 7 6 3 6 2-1 3h-38l1-3 8-4 2-9v-49l-1-42-12-7z" fill="#880339"/>
<path transform="translate(532,770)" d="m0 0h13l9 4 4 6 1 4 7-9 7-4 4-1h11l7 3 6 5 4 8 1 4v8l-2 8-7 9-7 4-6 1h-9l-8-4-6-6v-2h-3l-1 5-5 4-9 3h-12l-8-4-7-8-2-7v-11l3-9 5-5 6-5z" fill="#FBFAF7"/>
<path transform="translate(129,748)" d="m0 0h659l2 1-1 4-19 1h-654l-4-1v-4z" fill="#880339"/>
<path transform="translate(293,398)" d="m0 0h80l4 1 1 6-1 119-6-2-6-5-3-12-10-6-3-9 3-8 3-3 9-4 1-62h-54l-7 10-4 2h-8l-6-3-5-9-11-3-4-5v-6z" fill="#C9B57E"/>
<path transform="translate(286,604)" d="m0 0h9l16 3 14 7 10 9 7 10 5 13 1 4v25l-6 18-7 10-4 5-10 7-8 4-15 4h-17l-15-4-12-6-7-6-7-10-5-11-3-10-1-13 2-14 5-14 6-10 8-8 14-8 9-3zm-7 6-13 4-8 6-8 11-4 10-2 12v11l3 16 5 12 8 11 7 7 14 7 5 1h15l11-4 9-6 6-7 7-14 2-9v-23l-4-13-6-11-9-10-9-6-9-4-5-1z" fill="#880339"/>
<path transform="translate(380,276)" d="m0 0 4 1 6 7 2 12 7 2 7 5 2 4-2 10-4 4-10 4-1 55v5h53l4-4 6-8 5-2 8 1 6 5 3 8 15 1 8 9 8 10-3 1-4-1-2 1 1-6-2-1h-92l-23-1-1-1v-58z" fill="#C9B47E"/>
<path transform="translate(468,449)" d="m0 0 5 2 6 9v5l-3 4-1 3v7l1 2 3 1h9l7-5 5 2 9 8-1 4-6 5-4 4-6-2-3-3h-10l-4 4v8l5 6-2 5-7 8-5 1-5-5-4-5v-5l4-4 1-3v-8l-1-2h-18l-1 3h-6l-8-8 1-5 7-7 6-1 6 5 12-1 2-1v-10l-4-6 1-5 3-2 3-6z" fill="#880339"/>
<path transform="translate(639,255)" d="m0 0h1v44l-1 100-2 12-3 9-5-3-37-37-3-4v-2h38l3-9 5-17 1-6v-8l-2-5v-8l1-2v-10l-2-9h3l1-2h2z" fill="#C9B57E"/>
<path transform="translate(301,250)" d="m0 0h6l6 8 1 5-5 8v6l11-1 3-3h6l8 6 1 4-7 8-2 2-6-1-2-2-10-1h-2v10l4 2v6l-6 7-3 2-5-1-7-9 1-5 4-2v-7l-3-3h-6l-6 4h-5l-7-6-1-5 4-5 5-3h5l4 2h9l1-1-1-8-3-4v-5l6-5z" fill="#880339"/>
<path transform="translate(612,612)" d="m0 0h13l8 3 7 6 5 8 1 3v14l-4 8-6 5-6 2h-21l-1-2v-42z" fill="#FBF9F6"/>
<path transform="translate(198,770)" d="m0 0 7 1 3 5 13 29 1 3 2 1 3-9 9-20 5-9 6-1 4 2-5 1-1 4v17l1 22 7 1h3v-20l1-17-3-5-2-4h8l8 16 9 20v2l3-3 6-15 5-10 3-7 4-4h6l-4 6v20l1 18 4 5-12 1-2-2 3-3v-14l-1-15-7 14-8 18-3-1-6-12-8-17-1-1v13l1 16 4 2v1h-28l1-2v-31l-13 26-2 6-4-1-7-17-7-13v29l4 1v3l-11-1v-2l2-1 2-26v-10l-4-6z" fill="#880339"/>
<path transform="translate(133,770)" d="m0 0h14l7 3 5 5h4l4-5 7-3h8l8 4 4 5 2 5v10l-3 7-8 7h-12l-7-2-6-9-2-13-6-7-7-4h-10l-8 5-4 7-1 4v9l4 10 5 6 8 3 9-1 6-4 3-5h2l1 3-6 7-8 3h-13l-8-4-7-8-3-10 1-10 4-8 5-6z" fill="#FBFAF7"/>
<path transform="translate(574,773)" d="m0 0h13l8 6 5 8 1 4v12l-4 8-6 5-4 2h-9l-8-5-5-7-2-6-1-9 2-9 6-7z" fill="#FBFAF8"/>
<path transform="translate(587,140)" d="m0 0 3 1v4h-4l2 7 3 3v4h-7l1 9 3 10v4l-3-1-3-4-2 18-2 7h-2l-2-10-1-16-3 1-5 13-6 9-3 3h-3l2-9 5-13 3-9h-2l-8 11-10 9-4 3h-3l1-4 10-14 5-5h2l1-3 11-9 14-12 5-5h2z" fill="#C9AB7E"/>
<path transform="translate(461,770)" d="m0 0 5 1 1 7 7 12v2l5-5 5-9v-6l2-1h7l-2 4-4 5-9 14-1 3v18l1 4-2 1-8-1v-2l2-1 1-10-2-12-7-12-5-5-3-1h-13l-1 41 5 2-4 1h-9l1-4v-40h-13l-1 2h-2l-1-5-3 1-1 3v33l2 6 3 3-2 1-13-1 3-4v-42l-3-1v-1z" fill="#880339"/>
<path transform="translate(545,265)" d="m0 0h9l5 1v16l-1 3-13 5-2 3v7l5 13v5l-1 1h-14l-7-8v-3l5-1v-10l-3-13-1-12 4-5 3-1z" fill="#C9B47E"/>
<path transform="translate(342,770)" d="m0 0h16l5 4 9 11 9 10 8 10v2l4 1-1-28-1-7-5-1v-1h11l-1 7v41l-4-1-9-11-9-10-9-11-2-1v32l4 2h-13l3-3h2v-36l-3-6-4-1-1 3-1 24-4 12-4 5-7 3h-11l-7-3-5-6-2-9-1-26-1-3-4-2h14l-1 4v32l3 6 5 3 10 1 6-3 4-7 2-9v-19l-1-5-4-2z" fill="#880339"/>
<path transform="translate(565,114)" d="m0 0 3 1v8h10l4-1 1 3-5 9-9 10-13 10-8 4-3-1v-4l5-4 2-4v-4l-17-1-5-4 1-4 8-3 6-5h3l-1 6 12 3v-10l-1-3z" fill="#C9B37E"/>
<path transform="translate(500,129)" d="m0 0 4 2v20l6 12 1 4 1 22 4 5 1 4-7 1h-8l-4-3-3-30-1-9-2-8 3-2-2-9 5-5z" fill="#C9B47E"/>
<path transform="translate(523,627)" d="m0 0 4 2 14 37-1 3h-33l1-8 7-16z" fill="#FBFAF8"/>
<path transform="translate(133,770)" d="m0 0h14l7 3 5 5h4l4-5 7-3h8l8 4 4 5 2 5v10l-3 7-7 6h-5l3-2 5-4 2-4v-12l-3-6-6-5-9-1-6 4-3 7 1 11 4 8 10 4v1l-11-1-5-5-3-5-2-13-6-7-7-4h-10l-8 5-4 7-1 4v9l4 10 5 6 8 3 9-1 6-4 3-5h2l1 3-6 7-8 3h-13l-8-4-7-8-3-10 1-10 4-8 5-6z" fill="#880339"/>
<path transform="translate(556,298)" d="m0 0 4 2 5 14 9 4 2 5 7-2 1 7h9l3 4-1 3h-13l-9 3-7 8-5 1-8-7-5-6v-2h12l1-1v-7l-5-20z" fill="#C9B47E"/>
<path transform="translate(577,770)" d="m0 0h11l7 3 6 5 4 8 1 4v8l-2 8-7 9-7 4-6 1h-9l-8-4-8-9-2-9v-8l3-8 7-8 6-3zm-3 3-6 4-4 5-2 9 2 12 4 8 6 5 4 2h9l8-5 4-5 2-5v-12l-4-10-8-7-2-1z" fill="#880339"/>
<path transform="translate(246,772)" d="m0 0 7 1 4 4 1 8-2 32-8 1-3-2-1-22v-17z" fill="#FAF7F4"/>
<path transform="translate(724,770)" d="m0 0h10l10 2 5 5v5l-5-2-4-4-8-3h-8l-7 4-4 8v17l5 10 8 5h8l6-3 3-5v-10l-1-3-2-1v-2l10 1-1 15-2 5-9 5-4 1h-12l-9-5-5-6-2-8v-11l3-9 6-7z" fill="#880339"/>
<path transform="translate(673,770)" d="m0 0 30 1v7h-2l-2-3-16-1-1 18 17-1 1 1v5h-4-13v19l14-1 10-4-2 5-4 3-3 1h-23v-3l1-1v-39l-3-5z" fill="#880339"/>
<path transform="translate(423,137)" d="m0 0 16 2 8 4-3 7-8 4-13 1-9-3-6-5 1-6 8-3z" fill="#C9B47E"/>
<path transform="translate(753,771)" d="m0 0h29l1 5h-3l-4-1-15-1 1 18 16-1 1 1v5h-3l-11-1-3 1v19l14-1 10-4-2 5-4 3-6 1h-12l-8-1v-3l1-11v-29z" fill="#880339"/>
<path transform="translate(639,255)" d="m0 0h1v44l-1 100-2 12-3 9-5-3-1-4 5-3 2-4-1-2h2v-19l1-1v-20l-3-1 1-4h-2l1-8 2-9v-8l-2-5v-8l1-2v-10l-2-9h3l1-2h2z" fill="#C9AB7E"/>
<path transform="translate(532,770)" d="m0 0h13l9 4 3 5v3l-4-1-4-5-5-3-8-1-7 3h-3v2h-2l-3 9v14l3 8 5 6 9 3 11-2 7-6h2l-1 4-5 4-9 3h-12l-8-4-7-8-2-7v-11l3-9 5-5 6-5z" fill="#880339"/>
<path transform="translate(607,771)" d="m0 0h11l-2 4v40l5 1 12-2 2-2h3l-1 4-3 3-3 1h-24l2-10v-31l-2-5z" fill="#880339"/>
<path transform="translate(639,771)" d="m0 0h12l-2 4v40l1 1 13-1 5-3h4l-5 7-4 1h-21l-2-2 2-4v-37l-3-4z" fill="#880339"/>
<path transform="translate(587,140)" d="m0 0 3 1v4h-4l2 7 3 3v4h-7l-2 1-1 5-3-1-1-5-3 1-1 3h-3l-5 5-5-1 2-1 2-5 10-9 8-7 3-3h2z" fill="#C9B47E"/>
<path transform="translate(565,169)" d="m0 0 2 1-1 2 5-2h6l2-1v4l3 1-2 1-1 2v-3l-2 1-1 6h-1l-1-7h-3l-2 6-5 12-6 8-2 2h-3l2-9 5-13z" fill="#C9B47E"/>
<path transform="translate(376,411)" d="m0 0h1v113l-4-1-1-3 4-2-1-13-3-4-1-7-3-3-4 2-1-6 4-1h4l3-2 1-8z" fill="#C9AB7E"/>
<path transform="translate(545,124)" d="m0 0h3l-1 6 12 3-3 2v4h-2v5l-2-3-17-1-5-4 1-4 8-3z" fill="#C9AB7E"/>
<path transform="translate(640,135)" d="m0 0h1v114l-1 5h-1v-24l-1-24 1-8v-20l1-4h-4l1-5v-16l1-2h2l-1-8z" fill="#C9AB7E"/>
<path transform="translate(555,168)" d="m0 0 5 1-1 5-7 9-13 11h-3l1-4 10-14 5-5h2z" fill="#C9B27E"/>
<path transform="translate(474,134)" d="m0 0h5v8l-5 4-10 4h-6l1-5 4-5 8-5z" fill="#C9B37E"/>
<path transform="translate(358,112)" d="m0 0h6v4l-3 2 1 9-8-2-1 8-7-6-5-6 4 1 1 2h5v-3-5l3-3z" fill="#C9AB7E"/>
<path transform="translate(189,812)" d="m0 0h3l1 5-1 1h-30l-1-5z" fill="#880339"/>
<path transform="translate(579,346)" d="m0 0 2 1-2 4 4-1 1 4 5 1 1 1h6v2l3 2h20l-1 2h-20l-10-1-1-3-14-3 2-5z" fill="#C9AB7E"/>
<path transform="translate(622,151)" d="m0 0 4 1 1 3v12l-3 4-4-1-2-4 1-10z" fill="#C9AB7E"/>
<path transform="translate(509,408)" d="m0 0 7 6 27 27 5 7-5-2-4-5-3-2v-2l-4-2v-2h-2v-2h-2v-2l-4-2-6-7v-2h-2v-2l-5-2-3-5z" fill="#C9AB7E"/>
<path transform="translate(367,130)" d="m0 0 1 2h-3v3l6 2 10 5v2l-8-2h-8l-4-2h-3l-5-7 4 1v2h2l2-4z" fill="#C9AB7E"/>
<path transform="translate(589,374)" d="m0 0h38l-2 2h-22l-2 4-6 3-6-7z" fill="#C9AB7E"/>
<path transform="translate(523,111)" d="m0 0 2 4 3 5h6l-3 3-7 3-3-1 2-2-1-2-6-1-1-7h5v2l2-1z" fill="#C9AB7E"/>
<path transform="translate(312,205)" d="m0 0 7 6 5 6 7 6 7 8 6 7-2 2-7-8-5-5v-2h-2v-2h-2l-5-5-1-3h-2l-6-7z" fill="#C9AB7E"/>
<path transform="translate(380,276)" d="m0 0 4 1 6 7 1 9-2-4-5 1-2-2z" fill="#C9AB7E"/>
<path transform="translate(569,334)" d="m0 0 8 1-5 5-8 7-5-1-4-5h6l1 3 1-4 5 1-2-6z" fill="#C9AB7E"/>
<path transform="translate(605,158)" d="m0 0 3 3v7l4 8 3 2v6l-4 5-1-3 3-3 1-4-6 1-4-11z" fill="#C9AB7E"/>
<path transform="translate(311,410)" d="m0 0 53 1 1 2h-54l-4 6-1-3 2-5z" fill="#C9AB7E"/>
<path transform="translate(456,393)" d="m0 0h19l1 3 4 2h-16v-1l-16-1v-2z" fill="#C9AB7E"/>
<path transform="translate(537,130)" d="m0 0 4 1-1 7 2 2h-7l-5-4 1-4z" fill="#C9AB7E"/>
<path transform="translate(495,391)" d="m0 0 4 4 8 10-3 1-4-1-2 1 1-6-5-2 1-2-3-1v-2h3z" fill="#C9AB7E"/>
<path transform="translate(546,217)" d="m0 0 2 2h8l1 4-11 2h-11v-1h10z" fill="#C9AB7E"/>
<path transform="translate(580,108)" d="m0 0h18l-1 2-1 1-17 1-1-3z" fill="#C9AB7E"/>
<path transform="translate(540,128)" d="m0 0h4l-1 4 5 1-1 3h-2v2l-6 1 1-4-2-1 3-3h-2z" fill="#CAB67E"/>
<path transform="translate(624,160)" d="m0 0h2l1 7-3 4-4-1-1-4 1-3 3-1z" fill="#C9AB7E"/>
<path transform="translate(624,383)" d="m0 0 5 1-1 8h-7v-5h2z" fill="#C9AB7E"/>
<path transform="translate(474,381)" d="m0 0 2 4 15 1 2 3h-2v2l2 1-9-2-1-2-8-1-1-1z" fill="#C9AB7E"/>
<path transform="translate(548,332)" d="m0 0h10l-2 3 3 5-5 1-6-7z" fill="#C9AB7E"/>
<path transform="translate(556,298)" d="m0 0 4 2 2 7-1 5-3-1-2-7z" fill="#C9AC7E"/>
<path transform="translate(329,108)" d="m0 0h9v8l2 4-7-6-4-4z" fill="#C9AB7E"/>
<path transform="translate(479,156)" d="m0 0 4 1v20h-4l-2-5 2-3v2h3l-1-13z" fill="#C9AB7E"/>
<path transform="translate(633,140)" d="m0 0 5 1 2 3v7l-1 2h-2z" fill="#C9B17E"/>
<path transform="translate(357,498)" d="m0 0 4 1 2 2 4 3-2 8h-1l-2-7-7-4 2-1z" fill="#C9AB7E"/>
<path transform="translate(425,166)" d="m0 0 6 1v6h-6l-2-2v-4z" fill="#C9AE7E"/>
<path transform="translate(464,123)" d="m0 0 3 2-3 3-7 4-3-2 1-3 9-2z" fill="#C9AB7E"/>
<path transform="translate(400,176)" d="m0 0 4 1-1 6h8l-2 4-5-3-1 2-6-8z" fill="#C9AB7E"/>
<path transform="translate(608,189)" d="m0 0h3v20l-3-3-1-10h2z" fill="#C9AB7E"/>
<path transform="translate(589,328)" d="m0 0 5 1 2 5-1 1h-12v-1l8-1-2-4z" fill="#C9AB7E"/>
<path transform="translate(266,276)" d="m0 0 1 4 3 1 1 6 1 2-6 1z" fill="#C9AB7E"/>
<path transform="translate(533,148)" d="m0 0h6v2l-10 5v-4z" fill="#C9AB7E"/>
<path transform="translate(587,140)" d="m0 0 3 1v4h-4l-1 4-5-1 5-6h2z" fill="#C9AB7E"/>
<path transform="translate(570,224)" d="m0 0h2l1 2h4l-2 7h-3l-2-6z" fill="#C9AB7E"/>
<path transform="translate(600,179)" d="m0 0h5l-2 1 1 4-2 4-1 6h-1l-1-14z" fill="#C9AB7E"/>
<path transform="translate(344,238)" d="m0 0 7 6 5 6-5-1-4-5-1-2h-2z" fill="#C9AC7E"/>
<path transform="translate(295,188)" d="m0 0 7 6 6 7h-3l-10-11z" fill="#C9AB7E"/>
<path transform="translate(517,150)" d="m0 0 4 4v2l5 2-4 1v2h-2l-3-8z" fill="#C9AB7E"/>
<path transform="translate(275,169)" d="m0 0 6 4 9 9-3 1-8-9-4-3z" fill="#C9AB7E"/>
<path transform="translate(531,164)" d="m0 0 7 2 1 4-4 4 1-5-4-2z" fill="#C9AB7E"/>
<path transform="translate(622,155)" d="m0 0 4 3v2h-2l-1 3h-3l-1 3v-5l2-2z" fill="#C9B57E"/>
<path transform="translate(352,482)" d="m0 0 1 2v8l-1 5-2-2-1-5z" fill="#C9AB7E"/>
<path transform="translate(462,172)" d="m0 0h5l-1 4-3 1-4-2v-2z" fill="#C9AB7E"/>
<path transform="translate(386,523)" d="m0 0 3 2-1 5-5-2 1-4z" fill="#C9AD7E"/>
<path transform="translate(611,119)" d="m0 0h3l-1 5-5 1-1-3z" fill="#C9AB7E"/>
</svg>
